<?xml version="1.0" encoding="UTF-8"?>
<svg width="150px" height="150px" viewBox="0 0 150 150" version="1.1" xmlns="http://www.w3.org/2000/svg" xmlns:xlink="http://www.w3.org/1999/xlink">
    <!-- Generator: Sketch 46.2 (44496) - http://www.bohemiancoding.com/sketch -->
    <title>Slice</title>
    <desc>Created with Sketch.</desc>
    <defs>
        <circle id="path-1" cx="75" cy="79" r="50"></circle>
        <filter x="-52.5%" y="-52.5%" width="205.0%" height="205.0%" filterUnits="objectBoundingBox" id="filter-2">
            <feMorphology radius="5" operator="dilate" in="SourceAlpha" result="shadowSpreadOuter1"></feMorphology>
            <feOffset dx="0" dy="0" in="shadowSpreadOuter1" result="shadowOffsetOuter1"></feOffset>
            <feGaussianBlur stdDeviation="12.5" in="shadowOffsetOuter1" result="shadowBlurOuter1"></feGaussianBlur>
            <feColorMatrix values="0 0 0 0 0.970775187   0 0 0 0 0.907238424   0 0 0 0 0.109462149  0 0 0 1 0" type="matrix" in="shadowBlurOuter1"></feColorMatrix>
        </filter>
    </defs>
    <g id="Page-1" stroke="none" stroke-width="1" fill="none" fill-rule="evenodd">
        <g id="Oval">
            <use fill="black" fill-opacity="1" filter="url(#filter-2)" xlink:href="#path-1"></use>
            <use fill="#FFFFFF" fill-rule="evenodd" xlink:href="#path-1"></use>
        </g>
        <g id="笑脸" transform="translate(37.000000, 35.000000)" fill-rule="nonzero" fill="#000000">
            <path d="M25.2764405,25.3900779 C27.3207564,25.3900779 28.5340156,29.7495884 28.7745495,31.7390879 C28.9007341,32.8063181 29.8071635,33.5920801 30.8577531,33.5920801 C30.9385539,33.5920801 31.0216685,33.5879867 31.1046051,33.578465 C32.2569077,33.4430256 33.0815573,32.399733 32.9470968,31.2475195 C32.5100779,27.5119911 30.4018687,21.1882536 25.2765295,21.1882536 C20.1156841,21.1882536 18.1419355,27.5414461 17.7899889,31.2959288 C17.6806229,32.4503671 18.5293882,33.4755951 19.6849833,33.5838042 C20.8394216,33.6920133 21.8634928,32.8442269 21.9729477,31.6886318 C22.1586652,29.7147942 23.2482314,25.3900779 25.2764405,25.3900779 L25.2764405,25.3900779 Z M38.0789321,61.6515239 C51.876663,61.6515239 53.0227364,51.6559733 53.0342158,51.5533704 C53.1468743,50.4092547 52.3176863,49.3996885 51.1747275,49.272436 C50.0282886,49.1505501 48.9959855,49.9707046 48.8555284,51.1150167 C48.8231368,51.3730812 47.9519466,57.4483648 38.0788432,57.4483648 C28.247208,57.4483648 27.3428254,51.4260289 27.3039377,51.1192881 C27.1789099,49.9749944 26.1516352,49.1402002 25.0086763,49.2566852 C23.854238,49.3710345 23.010634,50.3984872 23.1241824,51.5539933 C23.1336151,51.6537486 24.2796885,61.6515239 38.0789321,61.6515239 L38.0789321,61.6515239 Z M57.2898776,31.7369522 C57.4158843,32.8053393 58.3224917,33.5920801 59.3728142,33.5920801 C59.454505,33.5920801 59.5366407,33.5879867 59.6195773,33.5773971 C60.7728587,33.4419577 61.5975083,32.3986652 61.4624249,31.2464516 C61.025139,27.5109232 58.9170189,21.1870078 53.7905228,21.1870078 C48.6304783,21.1870078 46.6568187,27.5403782 46.3041602,31.294594 C46.1959511,32.4492102 47.0435595,33.4743493 48.1991546,33.5824694 C49.3689878,33.6856062 50.378465,32.8428921 50.4879199,31.687564 C50.6739933,29.7137264 51.7624027,25.388832 53.7915907,25.388832 C55.8359066,25.388921 57.0491657,29.7473637 57.2898776,31.7369522 L57.2898776,31.7369522 Z" id="Shape"></path>
            <path d="M10.8358621,57.3179978 C6.70424917,51.7807341 4.25548387,44.9254727 4.25548387,37.5091435 C4.25548387,19.171079 19.2163737,4.25228031 37.607119,4.25228031 C55.9979533,4.25228031 70.9587542,19.17099 70.9587542,37.5091435 C70.9587542,44.9254727 68.5100779,51.7807341 64.378465,57.3179978 C65.9382425,57.3958621 67.4121468,57.7844716 68.7431368,58.429366 C72.793059,52.4521468 75.1595106,45.2515239 75.1595106,37.5091435 C75.1595106,16.8548165 58.3132369,0.0504560623 37.6061402,0.0504560623 C16.8993103,0.0504560623 0.0537486096,16.8539266 0.0537486096,37.5081646 C0.0537486096,45.2502781 2.42046719,52.4514349 6.47012236,58.4286541 C7.80200222,57.7845606 9.27572859,57.3947052 10.8358621,57.3179978 Z" id="Shape"></path>
            <path d="M63.810812,57.3148832 C58.0323026,57.3148832 53.2518799,61.6467186 52.5523471,67.2258065 C52.5543048,67.2245606 52.5566185,67.2239377 52.5585762,67.2226919 C52.5006452,67.687208 52.4606897,68.1579533 52.4606897,68.6389321 C52.4606897,68.160267 52.494238,67.6891657 52.5522581,67.2258065 C48.0533037,69.4857397 42.9785095,70.7661846 37.6058732,70.7661846 C32.2341268,70.7661846 27.1595106,69.4857397 22.6606452,67.2258065 C22.7188432,67.6891657 22.7522136,68.160267 22.7522136,68.6389321 C22.7522136,68.1587542 22.7123471,67.6882759 22.654416,67.2226919 C22.6563737,67.2239377 22.6585095,67.2245606 22.6605562,67.2258065 C21.9608454,61.6467186 17.1805117,57.3148832 11.4028031,57.3148832 C5.14518354,57.3148832 0.0533926585,62.3948387 0.0533926585,68.6389321 C0.0533926585,74.8832036 5.14509455,79.9630701 11.4028031,79.9630701 C16.5928365,79.9630701 20.9778865,76.4669188 22.3240934,71.7121246 C22.3226696,71.7116796 22.3214238,71.7108788 22.320356,71.7104338 C22.5242943,70.9858647 22.6570405,70.2431237 22.7167075,69.4927697 C22.6604656,70.2437972 22.5289645,70.9872807 22.3241824,71.7120356 C26.9968409,73.7973749 32.1657842,74.9667631 37.60703,74.9667631 C43.0480979,74.9667631 48.2165072,73.7977308 52.8891657,71.7123915 C52.6837992,70.9866619 52.5521431,70.2420716 52.4961958,69.4899221 C52.5557286,70.2533482 52.6925028,70.9955951 52.8935261,71.7103448 C52.8920133,71.7111457 52.8904116,71.7115907 52.8891657,71.7123026 C54.2351947,76.4671858 58.6203337,79.9628921 63.810723,79.9628921 C70.0683426,79.9628921 75.1601335,74.8830256 75.1601335,68.6387542 C75.1602225,62.3948387 70.0685206,57.3148832 63.810812,57.3148832 Z M11.4029811,75.7611568 C7.46153504,75.7611568 4.25548387,72.5647164 4.25548387,68.6382202 C4.25548387,64.7111902 7.46153504,61.5155506 11.4029811,61.5155506 C15.3444271,61.5155506 18.5503893,64.7123471 18.5503893,68.6389321 C18.5503893,72.5656062 15.3432703,75.7611568 11.4029811,75.7611568 Z M63.810812,75.7611568 C59.8696329,75.7611568 56.6625139,72.5647164 56.6625139,68.6382202 C56.6625139,64.7111902 59.8696329,61.5155506 63.810812,61.5155506 C67.752525,61.5155506 70.9586652,64.7123471 70.9586652,68.6389321 C70.9586652,72.5656062 67.752525,75.7611568 63.810812,75.7611568 Z" id="Shape"></path>
        </g>
    </g>
</svg>